<svg xmlns="http://www.w3.org/2000/svg" version="1.1" xmlns:xlink="http://www.w3.org/1999/xlink" xmlns:svgjs="http://svgjs.dev/svgjs" width="1500" height="935" viewBox="0 0 1500 935"><g transform="matrix(1,0,0,1,-0.9090909090909918,0.3785425101214628)"><svg viewBox="0 0 396 247" data-background-color="#ffffff" preserveAspectRatio="xMidYMid meet" height="935" width="1500" xmlns="http://www.w3.org/2000/svg" xmlns:xlink="http://www.w3.org/1999/xlink"><g id="tight-bounds" transform="matrix(1,0,0,1,0.2400000000000091,-0.09999999999999432)"><svg viewBox="0 0 395.52 247.2" height="247.2" width="395.52"><g><svg></svg></g><g><svg viewBox="0 0 395.52 247.2" height="247.2" width="395.52"><g transform="matrix(1,0,0,1,75.54432,99.43007013520821)"><svg viewBox="0 0 244.43135999999998 48.33985972958356" height="48.33985972958356" width="244.43135999999998"><g><svg viewBox="0 0 244.43135999999998 48.33985972958356" height="48.33985972958356" width="244.43135999999998"><g><svg viewBox="0 0 244.43135999999998 48.33985972958356" height="48.33985972958356" width="244.43135999999998"><g><svg viewBox="0 0 244.43135999999998 48.33985972958356" height="48.33985972958356" width="244.43135999999998"><g id="textblocktransform"><svg viewBox="0 0 244.43135999999998 48.33985972958356" height="48.33985972958356" width="244.43135999999998" id="textblock"><g><svg viewBox="0 0 244.43135999999998 48.33985972958356" height="48.33985972958356" width="244.43135999999998"><g transform="matrix(1,0,0,1,0,0)"><svg width="244.43135999999998" viewBox="1.35 -42.3 277.33 54.85" height="48.33985972958356" data-palette-color="#003231"><path d="M30.3 0L26.2-11.05 10.4-11.05 6.35 0 1.35 0 15.6-38.35 21-38.35 35.3 0 30.3 0ZM12.05-15.4L24.55-15.4 18.3-32.3 12.05-15.4ZM59.35-27.65L64.05-27.65 64.05 0 59.35 0 59.35-2.95Q55.25 0.6 50.9 0.6L50.9 0.6Q45.8 0.6 43.32-2.1 40.85-4.8 40.85-10.95L40.85-10.95 40.85-27.65 45.55-27.65 45.55-10.95Q45.55-7.05 46.87-5.4 48.2-3.75 51.55-3.75L51.55-3.75Q55.45-3.75 59.35-7.15L59.35-7.15 59.35-27.65ZM85.1-22.95L78.7-22.95 78.7-7.15Q78.7-5.15 79.32-4.42 79.95-3.7 81.65-3.7L81.65-3.7Q83.15-3.7 84.85-4.1L84.85-4.1 84.85 0.15Q82.6 0.65 80.85 0.65L80.85 0.65Q77.05 0.65 75.52-0.9 74-2.45 74-6.1L74-6.1 74-22.95 70.4-22.95 70.4-27.3 74-27.3 74-36.8 78.7-36.8 78.7-27.3 85.1-27.3 85.1-22.95ZM103.64 0.85Q99.24 0.85 96.17-1.07 93.09-3 91.54-6.33 89.99-9.65 89.99-13.8L89.99-13.8Q89.99-17.95 91.54-21.28 93.09-24.6 96.17-26.53 99.24-28.45 103.64-28.45L103.64-28.45Q108.04-28.45 111.12-26.53 114.19-24.6 115.72-21.28 117.24-17.95 117.24-13.8L117.24-13.8Q117.24-9.65 115.72-6.33 114.19-3 111.12-1.07 108.04 0.85 103.64 0.85L103.64 0.85ZM103.64-3.4Q107.79-3.4 110.07-6.3 112.34-9.2 112.34-13.8L112.34-13.8Q112.34-18.4 110.07-21.28 107.79-24.15 103.64-24.15L103.64-24.15Q99.49-24.15 97.19-21.28 94.89-18.4 94.89-13.8L94.89-13.8Q94.89-9.2 97.19-6.3 99.49-3.4 103.64-3.4L103.64-3.4ZM143.04-27.65L147.74-27.65 147.74 0.55Q147.74 6.2 145.12 9.38 142.49 12.55 135.94 12.55L135.94 12.55Q132.74 12.55 130.42 12.15 128.09 11.75 125.64 10.75L125.64 10.75 125.64 6.1Q127.94 7.15 130.24 7.68 132.54 8.2 134.49 8.2L134.49 8.2Q138.09 8.2 139.94 7.28 141.79 6.35 142.42 4.63 143.04 2.9 143.04 0.05L143.04 0.05 143.04-3.5Q139.09-0.15 135.04-0.15L135.04-0.15Q129.44-0.15 126.12-3.8 122.79-7.45 122.79-14.3L122.79-14.3Q122.79-21.2 126.14-24.83 129.49-28.45 135.04-28.45L135.04-28.45Q139.04-28.45 143.04-25.05L143.04-25.05 143.04-27.65ZM135.69-4.5Q139.34-4.5 143.04-7.6L143.04-7.6 143.04-20.95Q139.44-24.05 135.69-24.05L135.69-24.05Q131.79-24.05 129.72-21.48 127.64-18.9 127.64-14.3L127.64-14.3Q127.64-9.55 129.69-7.03 131.74-4.5 135.69-4.5L135.69-4.5ZM169.04-28.25L170.19-28.25 170.19-23.85 169.04-23.85Q164.74-23.85 160.69-20.4L160.69-20.4 160.69 0 155.99 0 155.99-27.65 160.69-27.65 160.69-24.55Q164.79-28.25 169.04-28.25L169.04-28.25ZM184.69-27.65Q189.09-27.65 191.38-26.18 193.69-24.7 194.44-22.23 195.19-19.75 195.19-16L195.19-16 195.19 0 190.49 0 190.49-2.75Q188.59-0.95 186.69-0.15 184.78 0.65 182.59 0.65L182.59 0.65Q179.99 0.65 177.88-0.48 175.78-1.6 174.56-3.73 173.34-5.85 173.34-8.75L173.34-8.75Q173.34-13.25 176.13-15.73 178.94-18.2 183.69-18.2L183.69-18.2Q187.44-18.2 190.44-16.55L190.44-16.55Q190.38-19 189.94-20.45 189.49-21.9 188.09-22.68 186.69-23.45 183.94-23.45L183.94-23.45 180.24-23.45 180.24-27.65 184.69-27.65ZM183.24-3.4Q184.94-3.4 186.81-4.2 188.69-5 190.49-6.6L190.49-6.6 190.49-12.9Q187.69-14.3 184.38-14.3L184.38-14.3Q181.74-14.3 179.94-13.03 178.13-11.75 178.13-8.75L178.13-8.75Q178.13-5.95 179.66-4.67 181.19-3.4 183.24-3.4L183.24-3.4ZM221.53-42.3L226.23-42.3 226.23 0 221.53 0 221.53-2.5Q217.58 0.85 213.53 0.85L213.53 0.85Q207.93 0.85 204.58-2.9 201.23-6.65 201.23-13.8L201.23-13.8Q201.23-20.95 204.58-24.7 207.93-28.45 213.53-28.45L213.53-28.45Q217.53-28.45 221.53-25.05L221.53-25.05 221.53-42.3ZM214.13-3.5Q217.73-3.5 221.53-6.6L221.53-6.6 221.53-20.95Q217.83-24.05 214.13-24.05L214.13-24.05Q210.18-24.05 208.16-21.45 206.13-18.85 206.13-13.8L206.13-13.8Q206.13-8.75 208.16-6.13 210.18-3.5 214.13-3.5L214.13-3.5ZM238.43-13.45Q238.53-8.85 240.73-6.1 242.93-3.35 247.73-3.35L247.73-3.35Q251.38-3.35 255.73-5.4L255.73-5.4 257.18-1.5Q252.63 0.85 247.33 0.85L247.33 0.85Q242.93 0.85 239.83-1 236.73-2.85 235.13-6.15 233.53-9.45 233.53-13.85L233.53-13.85Q233.53-18.5 235.21-21.78 236.88-25.05 239.73-26.75 242.58-28.45 246.13-28.45L246.13-28.45Q251.58-28.45 254.68-25.05 257.78-21.65 257.78-15.3L257.78-15.3 257.78-13.45 238.43-13.45ZM246.13-24.25Q239.93-24.25 238.73-17.4L238.73-17.4 252.83-17.4Q252.58-20.9 250.93-22.58 249.28-24.25 246.13-24.25L246.13-24.25ZM277.53-28.25L278.68-28.25 278.68-23.85 277.53-23.85Q273.23-23.85 269.18-20.4L269.18-20.4 269.18 0 264.48 0 264.48-27.65 269.18-27.65 269.18-24.55Q273.28-28.25 277.53-28.25L277.53-28.25Z" opacity="1" transform="matrix(1,0,0,1,0,0)" fill="#003231" class="wordmark-text-0" data-fill-palette-color="primary" id="text-0"></path></svg></g></svg></g></svg></g></svg></g></svg></g></svg></g></svg></g><path d="M205.598 93.43L205.598 32.604 387.589 32.604 387.589 214.596 205.598 214.596 205.598 153.77 209.957 153.77 209.957 210.236 383.23 210.236 383.23 36.964 209.957 36.964 209.957 93.43Z" fill="#003231" stroke="transparent" data-fill-palette-color="tertiary"></path></svg></g><defs></defs></svg><rect width="395.52" height="247.2" fill="none" stroke="none" visibility="hidden"></rect></g></svg></g></svg>